<?xml version="1.0" standalone="no"?>
<!DOCTYPE svg PUBLIC "-//W3C//DTD SVG 20010904//EN"
 "http://www.w3.org/TR/2001/REC-SVG-20010904/DTD/svg10.dtd">
<svg version="1.0" xmlns="http://www.w3.org/2000/svg"
 width="512.000000pt" height="512.000000pt" viewBox="0 0 512.000000 512.000000"
 preserveAspectRatio="xMidYMid meet">
<metadata>
Created by potrace 1.14, written by Peter Selinger 2001-2017
</metadata>
<g transform="translate(0.000000,512.000000) scale(0.100000,-0.100000)"
fill="#000000" stroke="none">
<path d="M0 4640 l0 -80 120 0 120 0 0 -80 0 -80 -120 0 -120 0 0 -80 0 -80
120 0 120 0 0 -80 0 -80 -120 0 -120 0 0 -80 0 -80 120 0 120 0 0 -80 0 -80
-120 0 -120 0 0 -80 0 -80 120 0 120 0 0 -80 0 -80 -120 0 -120 0 0 -80 0 -80
120 0 120 0 0 -80 0 -80 -120 0 -120 0 0 -80 0 -80 120 0 120 0 0 -80 0 -80
-120 0 -120 0 0 -80 0 -80 120 0 120 0 0 -80 0 -80 -120 0 -120 0 0 -80 0 -80
120 0 120 0 0 -80 0 -80 -120 0 -120 0 0 -80 0 -80 120 0 120 0 0 -80 0 -80
-120 0 -120 0 0 -80 0 -80 115 0 115 0 0 -80 0 -80 -115 0 -115 0 0 -80 0 -80
115 0 115 0 0 -80 0 -80 -115 0 -115 0 0 -80 0 -80 115 0 115 0 0 -80 0 -80
-115 0 -115 0 0 -80 0 -80 115 0 115 0 0 -80 0 -80 -115 0 -115 0 0 -80 0 -80
195 0 195 0 0 640 0 640 2165 0 2165 0 0 -640 0 -640 200 0 200 0 0 80 0 80
-120 0 -120 0 0 80 0 80 120 0 120 0 0 80 0 80 -120 0 -120 0 0 80 0 80 120 0
120 0 0 80 0 80 -120 0 -120 0 0 80 0 80 120 0 120 0 0 80 0 80 -120 0 -120 0
0 80 0 80 120 0 120 0 0 80 0 80 -120 0 -120 0 0 80 0 80 120 0 120 0 0 80 0
80 -120 0 -120 0 0 80 0 80 120 0 120 0 0 80 0 80 -120 0 -120 0 0 80 0 80
120 0 120 0 0 80 0 80 -120 0 -120 0 0 80 0 80 120 0 120 0 0 80 0 80 -120 0
-120 0 0 80 0 80 120 0 120 0 0 80 0 80 -120 0 -120 0 0 80 0 80 120 0 120 0
0 80 0 80 -120 0 -120 0 0 80 0 80 120 0 120 0 0 80 0 80 -120 0 -120 0 0 80
0 80 120 0 120 0 0 80 0 80 -120 0 -120 0 0 80 0 80 120 0 120 0 0 80 0 80
-2560 0 -2560 0 0 -80z"/>
<path d="M1406 1003 c1 -285 2 -520 3 -523 1 -3 5 0 9 7 4 6 7 117 6 245 -2
207 -1 231 13 213 19 -27 167 -275 237 -400 31 -55 56 -91 56 -80 0 15 0 797
0 1008 0 16 -4 26 -9 22 -5 -3 -9 -107 -8 -244 l2 -238 -21 31 c-38 56 -144
238 -144 247 0 5 -4 9 -9 9 -5 0 -11 6 -13 13 -4 18 -112 207 -118 207 -3 0
-4 -233 -4 -517z"/>
<path d="M1876 1002 c1 -285 2 -519 3 -522 1 -3 5 0 9 7 4 7 6 116 5 242 -1
127 0 231 2 231 3 0 58 -84 80 -125 7 -11 50 -85 97 -165 47 -80 93 -160 102
-178 9 -17 20 -32 24 -32 5 0 7 795 2 1018 0 13 -4 21 -9 18 -5 -4 -8 -108 -7
-236 1 -126 -2 -230 -6 -230 -6 0 -126 194 -187 303 -12 20 -31 54 -43 75 -12
20 -27 49 -35 63 -37 74 -38 66 -37 -469z"/>
<path d="M4002 1505 c-28 -21 -67 -87 -91 -158 -11 -31 -18 -57 -16 -57 2 0 0
-14 -5 -31 -15 -52 -23 -138 -25 -259 -3 -291 81 -540 181 -540 50 0 130 123
150 232 13 76 31 227 29 259 l-2 34 -80 3 c-67 2 -82 0 -87 -14 -11 -28 3 -34
80 -34 l74 0 -6 -67 c-13 -154 -53 -278 -107 -335 -27 -29 -62 -37 -69 -15 -2
6 -4 221 -4 477 1 439 2 465 19 468 43 9 90 -56 123 -167 11 -38 18 -50 24
-41 5 8 7 17 5 20 -2 4 -6 17 -9 31 -10 56 -50 142 -80 174 -37 38 -68 44
-104 20z"/>
<path d="M4442 1504 c-54 -37 -90 -153 -90 -288 -1 -121 25 -241 98 -466 9
-30 23 -71 29 -91 16 -52 18 -126 3 -141 -23 -23 -64 12 -99 82 -31 60 -33 63
-33 32 0 -69 72 -172 122 -172 57 0 109 64 132 162 14 57 15 229 3 278 -23 92
-58 212 -97 335 -38 117 -45 211 -18 228 22 14 51 -11 75 -64 19 -43 36 -34
23 12 -26 91 -92 133 -148 93z"/>
<path d="M490 990 l0 -511 103 2 c61 1 112 7 128 14 49 26 77 118 74 251 -2
100 -6 130 -23 160 -6 11 -4 26 5 45 8 15 16 37 18 48 3 12 7 31 10 44 3 12 6
70 7 128 0 145 -32 255 -90 305 -21 19 -38 22 -128 23 l-104 2 0 -511z m220
443 c32 -22 36 -27 61 -93 37 -97 29 -327 -13 -377 -15 -18 -38 -16 -61 4 -20
18 -20 17 -13 -17 7 -38 22 -52 48 -46 36 8 63 -144 44 -250 -15 -84 -55 -130
-107 -122 l-24 3 -2 458 -1 457 22 0 c12 0 33 -8 46 -17z"/>
<path d="M960 1463 c0 -21 0 -234 0 -473 -1 -239 -1 -452 0 -472 l0 -38 155 0
155 0 0 25 c0 25 -1 25 -79 25 l-80 0 -1 320 0 319 72 3 c67 3 73 5 76 26 3
21 0 22 -72 22 l-76 0 0 115 0 114 68 3 c59 3 67 5 67 23 0 19 -8 20 -142 23
l-143 3 0 -38z"/>
<path d="M2360 1035 c0 -255 0 -468 -1 -472 -1 -5 -1 -25 0 -45 l1 -38 75 0
75 0 0 510 0 510 -75 0 -75 0 0 -465z"/>
<path d="M2900 991 l0 -511 75 0 75 0 0 113 1 112 44 -89 c39 -79 96 -156 116
-156 4 0 10 7 13 16 4 11 -5 27 -28 48 -18 18 -46 52 -61 75 l-27 44 30 23
c28 22 65 93 76 145 3 13 7 35 10 49 27 120 24 312 -5 435 -5 22 -11 48 -14
58 -8 35 -50 100 -78 121 -22 16 -46 21 -127 24 l-100 4 0 -511z m210 444 c48
-25 83 -83 96 -165 21 -121 24 -235 10 -347 -14 -113 -58 -206 -102 -217 -58
-15 -64 23 -64 411 1 365 -2 350 60 318z"/>
<path d="M3389 1488 c-1 -7 -1 -16 0 -20 0 -4 1 -174 1 -379 1 -270 5 -393 15
-451 17 -101 49 -152 104 -169 81 -24 145 13 174 102 30 90 35 172 37 594 2
347 2 340 -7 331 -5 -4 -8 -157 -9 -339 -1 -470 -14 -570 -77 -623 -35 -29
-89 -33 -86 -6 1 9 1 232 0 495 l-1 477 -75 0 c-53 0 -75 -4 -76 -12z"/>
</g>
</svg>
